#!OML:ASF I:\golf\golf\golf 2\Subject 1\2002-09-07\Subject1.ASF
:FULLY-SPECIFIED
:DEGREES
176
root -7.16102 17.6234 1.88707 -128.061 87.2947 -143.428
lowerback 2.15144 1.94948 -1.57834
upperback 2.21116 2.64283 4.28942
thorax 0.794793 1.31243 5.27422
lowerneck -13.9297 -2.70034 0.267774
upperneck 42.1659 0.0886348 -4.15254
head 18.0791 0.256581 -1.73783
rclavicle -1.03368e-014 -2.14687e-014
rhumerus -6.93373 -1.80959 -102.292
rradius 24.0259
rwrist -46.6958
rhand -19.2851 -10.9572
rfingers 7.12502
rthumb 7.0299 -40.8205
lclavicle -1.03368e-014 -2.14687e-014
lhumerus -6.56818 -43.238 107.943
lradius 20.9131
lwrist 24.8749
lhand -4.12108 69.8918
lfingers 7.12502
lthumb -158.362 81.2972
rfemur -29.3816 -4.6179 9.09678
rtibia 32.0675
rfoot -10.8915 -8.03028
rtoes -8.10422
lfemur -30.1433 8.2718 -10.1325
ltibia 32.4723
lfoot -13.5667 -5.96473
ltoes -20.5068
177
root -7.16557 17.619 1.89538 -123.711 87.4442 -139.053
lowerback 2.18724 2.04034 -1.56695
upperback 2.23678 2.76245 4.21846
thorax 0.792618 1.37192 5.18988
lowerneck -13.8979 -2.73219 0.186318
upperneck 42.0774 -0.0217855 -3.99246
head 18.0131 0.215914 -1.6663
rclavicle -2.22639e-014 -3.49861e-014
rhumerus -7.02126 -1.90924 -102.462
rradius 24.1804
rwrist -46.6659
rhand -19.4886 -10.6416
rfingers 7.12502
rthumb 6.83348 -40.5113
lclavicle -2.22639e-014 -3.49861e-014
lhumerus -6.20974 -44.0929 107.558
lradius 20.5419
lwrist 23.9466
lhand -1.93479 69.7091
lfingers 7.12502
lthumb -156.264 81.7367
rfemur -29.5081 -4.38589 9.13381
rtibia 32.193
rfoot -10.9556 -7.93303
rtoes -7.70217
lfemur -30.1208 8.46727 -10.0701
ltibia 32.5735
lfoot -13.6522 -5.86088
ltoes -21.0767
178
root -7.17146 17.6152 1.90517 -116.652 87.6293 -131.934
lowerback 2.24746 2.14371 -1.55079
upperback 2.29819 2.89811 4.12555
thorax 0.813702 1.43866 5.07947
lowerneck -13.9539 -2.70887 0.181173
upperneck 42.0807 -0.0402647 -3.87411
head 18.0292 0.220581 -1.615
rclavicle 2.14687e-014 2.70347e-014
rhumerus -7.14168 -2.01015 -102.716
rradius 24.4941
rwrist -46.6917
rhand -20.0589 -10.5106
rfingers 7.12502
rthumb 6.28297 -40.3975
lclavicle 2.14687e-014 2.70347e-014
lhumerus -5.71797 -45.1718 106.969
lradius 20.2533
lwrist 23.2546
lhand 0.170238 69.5297
lfingers 7.12502
lthumb -154.247 82.1931
rfemur -29.6505 -4.08048 9.18792
rtibia 32.3336
rfoot -11.0885 -7.8244
rtoes -7.46496
lfemur -30.0268 8.68825 -9.97112
ltibia 32.6776
lfoot -13.6454 -5.73957
ltoes -20.9561
179
root -7.17753 17.6099 1.91677 -108.525 87.7255 -123.764
lowerback 2.32595 2.2038 -1.63203
upperback 2.32387 2.97759 4.14447
thorax 0.783444 1.47789 5.14073
lowerneck -13.9763 -2.6533 0.113136
upperneck 42.1058 0.0614785 -3.84985
head 18.0559 0.25295 -1.57376
rclavicle -1.03368e-014 -2.54444e-014
rhumerus -7.38707 -1.92579 -102.883
rradius 24.9122
rwrist -47.0454
rhand -21.0653 -10.3489
rfingers 7.12502
rthumb 5.31128 -40.2624
lclavicle -1.03368e-014 -2.54444e-014
lhumerus -5.43127 -46.8176 106.528
lradius 20.241
lwrist 23.87
lhand 0.644599 69.5037
lfingers 7.12502
lthumb -153.792 82.2857
rfemur -29.8089 -3.71343 9.27034
rtibia 32.4893
rfoot -11.2291 -7.68294
rtoes -7.29969
lfemur -29.9613 8.93166 -9.82622
ltibia 32.779
lfoot -13.6225 -5.66964
ltoes -20.5472
180
root -7.18258 17.6038 1.93141 -99.7467 87.7671 -114.989
lowerback 2.37987 2.26702 -1.81923
upperback 2.30693 3.06044 4.20427
thorax 0.715038 1.51876 5.30452
lowerneck -13.9026 -2.61953 -0.000941156
upperneck 42.0404 0.128716 -3.81929
head 18.0013 0.263245 -1.52423
rclavicle -3.57812e-015 -1.59028e-015
rhumerus -7.63841 -2.16589 -103
rradius 25.2923
rwrist -47.3257
rhand -21.9734 -10.1561
rfingers 7.12502
rthumb 4.43442 -40.0897
lclavicle -3.57812e-015 -1.59028e-015
lhumerus -5.29072 -47.9127 106.293
lradius 20.1305
lwrist 23.9656
lhand 1.1509 69.287
lfingers 7.12502
lthumb -153.308 82.5754
rfemur -30.0072 -3.26154 9.35117
rtibia 32.6605
rfoot -11.3449 -7.59813
rtoes -6.72292
lfemur -29.9331 9.23621 -9.68019
ltibia 32.875
lfoot -13.6599 -5.64962
ltoes -20.3807
181
root -7.18771 17.6008 1.94876 -88.5342 87.7965 -103.74
lowerback 2.48286 2.39105 -1.99675
upperback 2.30144 3.2222 4.17816
thorax 0.626848 1.59924 5.36842
lowerneck -13.8331 -2.60294 -0.0895881
upperneck 41.9531 0.110507 -3.6868
head 17.9304 0.255696 -1.4474
rclavicle 3.97569e-016 -7.95139e-015
rhumerus -7.87719 -2.54836 -103.173
rradius 25.75
rwrist -47.5098
rhand -22.6478 -10.1507
rfingers 7.12502
rthumb 3.78324 -40.0968
lclavicle 3.97569e-016 -7.95139e-015
lhumerus -5.19598 -49.2043 105.926
lradius 20.1244
lwrist 24.1456
lhand 2.20678 68.8875
lfingers 7.12502
lthumb -152.298 83.1329
rfemur -30.2045 -2.7027 9.4081
rtibia 32.8516
rfoot -11.4679 -7.57159
rtoes -5.54037
lfemur -29.8275 9.51303 -9.53872
ltibia 32.9745
lfoot -13.7693 -5.45753
ltoes -20.8895
182
root -7.1962 17.5979 1.96603 -76.2932 87.7396 -91.4767
lowerback 2.59982 2.51772 -2.08539
upperback 2.29838 3.38709 4.0884
thorax 0.540774 1.68199 5.31382
lowerneck -13.8327 -2.55267 -0.118994
upperneck 41.9385 0.133888 -3.55106
head 17.9224 0.275872 -1.37481
rclavicle -1.03368e-014 1.59028e-015
rhumerus -8.14849 -2.58588 -103.41
rradius 26.3774
rwrist -48.006
rhand -23.3192 -10.2186
rfingers 7.12502
rthumb 3.13489 -40.1753
lclavicle -1.03368e-014 1.59028e-015
lhumerus -5.01493 -50.7549 105.332
lradius 20.1676
lwrist 24.5143
lhand 3.66385 68.2505
lfingers 7.12502
lthumb -150.905 84.0021
rfemur -30.4801 -2.27603 9.50626
rtibia 33.0661
rfoot -11.515 -7.38938
rtoes -4.80003
lfemur -29.7485 9.79237 -9.39734
ltibia 33.0698
lfoot -13.8894 -5.16231
ltoes -21.7356
